P2
128 128
255
0 0 0 0 0 0 0 0 0 0 0 0 0 0 0 0 0 0 0 0 0 0 0 0 0 0 0 0 0 0 0 0 0 0 0 0 0 0 0 0 0 0 0 0 0 0 0 0 0 0 1 1 1 2 2 2 1 1 1 0 0 0 0 0 0 0 0 0 0 1 1 1 2 2 2 1 1 1 0 0 0 0 0 0 0 0 0 0 0 0 0 0 0 0 0 0 0 0 0 0 0 0 0 0 0 0 0 0 0 0 0 0 0 0 0 0 0 0 0 0 0 0 0 0 0 0 0 0 
0 0 0 0 0 0 0 0 0 0 0 0 0 0 0 0 0 0 0 0 0 0 0 0 0 0 0 0 0 0 0 0 0 0 0 0 0 0 0 0 0 0 0 0 0 0 0 0 1 1 2 3 4 5 5 5 5 4 3 2 1 0 0 0 0 0 0 1 2 3 4 5 5 5 5 4 3 2 1 1 0 0 0 0 0 0 0 0 0 0 0 0 0 0 0 0 0 0 0 0 0 0 0 0 0 0 0 0 0 0 0 0 0 0 0 0 0 0 0 0 0 0 0 0 0 0 0 0 
0 0 0 0 0 0 0 0 0 0 0 0 0 0 0 0 0 0 0 0 0 0 0 0 0 0 0 0 0 0 0 0 0 0 0 0 0 0 0 0 0 0 0 0 0 0 0 1 2 5 8 12 14 16 17 17 15 13 9 6 3 1 0 0 0 0 1 3 6 9 13 15 17 17 16 14 12 8 5 2 1 0 0 0 0 0 0 0 0 0 0 0 0 0 0 0 0 0 0 0 0 0 0 0 0 0 0 0 0 0 0 0 0 0 0 0 0 0 0 0 0 0 0 0 0 0 0 0 
0 0 0 0 0 0 0 0 0 0 0 0 0 0 0 0 0 0 0 0 0 0 0 0 0 0 0 0 0 0 0 0 0 0 0 0 0 0 0 0 0 0 0 0 0 0 1 3 8 16 25 34 41 44 46 46 43 38 29 18 9 4 1 0 0 1 4 9 18 29 38 43 46 46 44 41 34 25 16 8 3 1 0 0 0 0 0 0 0 0 0 0 0 0 0 0 0 0 0 0 0 0 0 0 0 0 0 0 0 0 0 0 0 0 0 0 0 0 0 0 0 0 0 0 0 0 0 0 
0 0 0 0 0 0 0 0 0 0 0 0 0 0 0 0 0 0 0 0 0 0 0 0 0 0 0 0 0 0 0 0 0 0 0 0 0 0 0 0 0 0 0 0 0 1 3 9 22 41 61 74 81 83 84 85 84 79 67 46 24 10 3 1 1 3 10 24 46 67 79 84 85 84 83 81 74 61 41 22 9 3 1 0 0 0 0 0 0 0 0 0 0 0 0 0 0 0 0 0 0 0 0 0 0 0 0 0 0 0 0 0 0 0 0 0 0 0 0 0 0 0 0 0 0 0 0 0 
0 0 0 0 0 0 0 0 0 0 0 0 0 0 0 0 0 0 0 0 0 0 0 0 0 0 0 0 0 0 0 0 0 0 0 0 0 0 0 1 1 1 1 0 1 2 7 20 46 76 94 99 99 97 97 98 100 102 99 82 50 21 7 3 3 7 21 50 82 99 102 100 98 97 97 99 99 94 76 46 20 7 2 1 0 1 1 1 1 0 0 0 0 0 0 0 0 0 0 0 0 0 0 0 0 0 0 0 0 0 0 0 0 0 0 0 0 0 0 0 0 0 0 0 0 0 0 0 
0 0 0 0 0 0 0 0 0 0 0 0 0 0 0 0 0 0 0 0 0 0 0 0 0 0 0 0 0 0 0 0 0 0 0 0 1 2 3 4 4 4 3 2 2 5 13 35 72 98 104 100 96 92 91 92 96 101 106 102 75 34 12 5 5 12 34 75 102 106 101 96 92 91 92 96 100 104 98 72 35 13 5 2 2 3 4 4 4 3 2 1 0 0 0 0 0 0 0 0 0 0 0 0 0 0 0 0 0 0 0 0 0 0 0 0 0 0 0 0 0 0 0 0 0 0 0 0 
0 0 0 0 0 0 0 0 0 0 0 0 0 0 0 0 0 0 0 0 0 0 0 0 0 0 0 0 0 0 0 0 0 0 0 1 3 6 10 13 14 13 10 7 6 8 20 49 87 103 101 94 87 83 81 82 87 94 103 106 88 44 16 6 6 16 44 88 106 103 94 87 82 81 83 87 94 101 103 87 49 20 8 6 7 10 13 14 13 10 6 3 1 0 0 0 0 0 0 0 0 0 0 0 0 0 0 0 0 0 0 0 0 0 0 0 0 0 0 0 0 0 0 0 0 0 0 0 
0 0 0 0 0 0 0 0 0 0 0 0 0 0 0 0 0 0 0 0 0 0 0 0 0 0 0 0 0 0 0 0 0 0 2 4 10 19 30 40 43 39 30 20 13 14 26 57 92 102 97 88 81 75 73 74 80 88 98 103 89 47 18 7 7 18 47 89 103 98 88 80 74 73 75 81 88 97 102 92 57 26 14 13 20 30 39 43 40 30 19 10 4 2 0 0 0 0 0 0 0 0 0 0 0 0 0 0 0 0 0 0 0 0 0 0 0 0 0 0 0 0 0 0 0 0 0 0 
0 0 0 0 0 0 0 0 0 0 0 0 0 0 0 0 0 0 0 0 0 0 0 0 0 0 0 0 0 0 0 0 0 2 5 12 25 47 69 84 88 82 66 46 28 22 32 60 90 99 95 86 78 72 69 70 75 84 94 98 83 43 16 6 6 16 43 83 98 94 84 75 70 69 72 78 86 95 99 90 60 32 22 28 46 66 82 88 84 69 47 25 12 5 2 0 0 0 0 0 0 0 0 0 0 0 0 0 0 0 0 0 0 0 0 0 0 0 0 0 0 0 0 0 0 0 0 0 
0 0 0 0 0 0 0 0 0 0 0 0 0 0 0 0 0 0 0 0 0 0 0 0 0 0 0 0 0 0 0 0 1 4 11 26 51 80 98 104 105 103 94 74 49 33 34 54 82 94 93 87 79 73 69 70 75 83 91 91 70 35 13 5 5 13 35 70 91 91 83 75 70 69 73 79 87 93 94 82 54 34 33 49 74 94 103 105 104 98 80 51 26 11 4 1 0 0 0 0 0 0 0 0 0 0 0 0 0 0 0 0 0 0 0 0 0 0 0 0 0 0 0 0 0 0 0 0 
0 0 0 0 0 0 0 0 0 0 0 0 0 0 0 0 0 0 0 0 0 0 0 0 0 0 0 0 0 0 0 1 4 9 22 47 76 96 102 102 101 101 99 89 65 41 33 42 63 80 86 85 80 76 73 73 77 83 87 81 55 25 9 4 4 9 25 55 81 87 83 77 73 73 76 80 85 86 80 63 42 33 41 65 89 99 101 101 102 102 96 76 47 22 9 4 1 0 0 0 0 0 0 0 0 0 0 0 0 0 0 0 0 0 0 0 0 0 0 0 0 0 0 0 0 0 0 0 
0 0 0 0 0 0 0 0 0 0 0 0 0 0 0 0 0 0 0 0 0 0 0 0 0 0 0 0 0 0 1 3 8 19 40 69 90 97 95 92 91 93 94 90 72 44 28 27 38 53 65 72 76 77 77 78 81 84 84 70 42 18 6 3 3 6 18 42 70 84 84 81 78 77 77 76 72 65 53 38 27 28 44 72 90 94 93 91 92 95 97 90 69 40 19 8 3 1 0 0 0 0 0 0 0 0 0 0 0 0 0 0 0 0 0 0 0 0 0 0 0 0 0 0 0 0 0 0 
0 0 0 0 0 0 0 0 0 0 0 0 0 0 0 0 0 0 0 0 0 0 0 0 0 0 0 0 1 1 3 8 17 36 62 84 93 92 88 84 83 85 89 88 73 44 24 17 19 27 37 49 61 73 80 83 85 86 81 61 33 13 5 2 2 5 13 33 61 81 86 85 83 80 73 61 49 37 27 19 17 24 44 73 88 89 85 83 84 88 92 93 84 62 36 17 8 3 1 1 0 0 0 0 0 0 0 0 0 0 0 0 0 0 0 0 0 0 0 0 0 0 0 0 0 0 0 0 
0 0 0 0 0 0 0 0 0 0 0 0 0 0 0 0 0 0 0 0 0 0 0 1 1 1 1 1 2 4 9 17 34 58 81 92 92 88 82 78 77 80 85 85 72 45 21 11 9 12 17 27 43 63 79 87 89 88 79 56 29 12 4 2 2 4 12 29 56 79 88 89 87 79 63 43 27 17 12 9 11 21 45 72 85 85 80 77 78 82 88 92 92 81 58 34 17 9 4 2 1 1 1 1 1 0 0 0 0 0 0 0 0 0 0 0 0 0 0 0 0 0 0 0 0 0 0 0 
0 0 0 0 0 0 0 0 0 0 0 0 0 0 0 0 0 0 0 0 1 2 3 3 3 3 4 5 7 11 20 35 57 79 91 93 90 83 76 73 73 78 83 85 75 48 22 9 5 5 8 14 27 50 75 88 91 89 80 57 29 13 6 3 3 6 13 29 57 80 89 91 88 75 50 27 14 8 5 5 9 22 48 75 85 83 78 73 73 77 83 90 93 91 79 57 35 20 11 7 5 4 3 3 3 3 2 1 0 0 0 0 0 0 0 0 0 0 0 0 0 0 0 0 0 0 0 0 
0 0 0 0 0 0 0 0 0 0 0 0 0 0 0 0 0 0 1 2 5 7 9 11 11 11 12 14 18 26 41 60 79 91 94 92 86 78 70 67 70 77 84 87 80 55 26 10 4 3 4 8 18 38 68 87 93 91 82 61 35 18 10 7 7 10 18 35 61 82 91 93 87 68 38 18 8 4 3 4 10 26 55 80 87 84 77 70 67 70 78 86 92 94 91 79 60 41 26 18 14 12 11 11 11 9 7 5 2 1 0 0 0 0 0 0 0 0 0 0 0 0 0 0 0 0 0 0 
0 0 0 0 0 0 0 0 0 0 0 0 0 0 0 0 0 1 4 8 15 23 29 32 32 32 32 35 41 52 66 81 90 94 94 89 79 68 59 58 65 75 85 90 87 66 34 13 5 2 2 4 12 29 59 84 93 91 84 69 47 30 20 16 16 20 30 47 69 84 91 93 84 59 29 12 4 2 2 5 13 34 66 87 90 85 75 65 58 59 68 79 89 94 94 90 81 66 52 41 35 32 32 32 32 29 23 15 8 4 1 0 0 0 0 0 0 0 0 0 0 0 0 0 0 0 0 0 
0 0 0 0 0 0 0 0 0 0 0 0 0 0 0 0 1 4 10 23 42 58 68 71 69 66 65 66 70 77 84 90 93 94 91 82 67 51 43 45 56 73 85 93 93 78 44 17 6 2 1 3 8 22 50 79 91 91 86 77 63 50 41 36 36 41 50 63 77 86 91 91 79 50 22 8 3 1 2 6 17 44 78 93 93 85 73 56 45 43 51 67 82 91 94 93 90 84 77 70 66 65 66 69 71 68 58 42 23 10 4 1 0 0 0 0 0 0 0 0 0 0 0 0 0 0 0 0 
0 0 0 0 0 0 0 0 0 0 0 0 0 0 0 0 2 8 23 51 80 95 98 96 92 88 86 85 85 87 90 92 94 93 86 70 49 33 27 32 48 69 85 94 97 87 55 22 7 2 1 2 6 18 43 73 88 89 86 82 77 71 68 66 66 68 71 77 82 86 89 88 73 43 18 6 2 1 2 7 22 55 87 97 94 85 69 48 32 27 33 49 70 86 93 94 92 90 87 85 85 86 88 92 96 98 95 80 51 23 8 2 0 0 0 0 0 0 0 0 0 0 0 0 0 0 0 0 
0 0 0 0 0 0 0 0 0 0 0 0 0 0 0 1 5 15 42 80 102 105 101 96 93 90 89 88 89 90 92 94 95 91 76 52 30 19 16 23 42 67 85 95 99 93 63 27 9 3 1 2 5 15 38 69 85 88 85 84 83 84 86 87 87 86 84 83 84 85 88 85 69 38 15 5 2 1 3 9 27 63 93 99 95 85 67 42 23 16 19 30 52 76 91 95 94 92 90 89 88 89 90 93 96 101 105 102 80 42 15 5 1 0 0 0 0 0 0 0 0 0 0 0 0 0 0 0 
0 0 0 0 0 0 0 0 0 0 0 0 0 0 0 2 7 23 58 95 105 101 94 89 87 86 86 87 89 92 95 97 94 82 58 33 17 10 11 20 40 67 86 95 100 96 67 29 10 3 1 2 5 15 37 68 85 87 85 84 85 88 91 93 93 91 88 85 84 85 87 85 68 37 15 5 2 1 3 10 29 67 96 100 95 86 67 40 20 11 10 17 33 58 82 94 97 95 92 89 87 86 86 87 89 94 101 105 95 58 23 7 2 0 0 0 0 0 0 0 0 0 0 0 0 0 0 0 
0 0 0 0 0 0 0 0 0 0 0 0 0 0 0 3 9 29 68 98 101 94 87 83 81 82 84 87 90 94 96 95 85 64 37 18 9 6 9 20 43 71 88 96 100 94 65 28 9 3 1 2 6 16 40 71 86 88 86 84 84 86 87 89 89 87 86 84 84 86 88 86 71 40 16 6 2 1 3 9 28 65 94 100 96 88 71 43 20 9 6 9 18 37 64 85 95 96 94 90 87 84 82 81 83 87 94 101 98 68 29 9 3 0 0 0 0 0 0 0 0 0 0 0 0 0 0 0 
0 0 0 0 0 0 0 0 0 0 0 0 0 0 1 3 11 32 71 96 96 89 83 79 78 78 79 81 84 86 85 77 60 37 19 9 5 5 10 24 50 77 90 96 98 89 57 24 8 2 1 2 7 20 46 76 89 90 87 83 78 74 72 70 70 72 74 78 83 87 90 89 76 46 20 7 2 1 2 8 24 57 89 98 96 90 77 50 24 10 5 5 9 19 37 60 77 85 86 84 81 79 78 78 79 83 89 96 96 71 32 11 3 1 0 0 0 0 0 0 0 0 0 0 0 0 0 0 
0 0 0 0 0 0 0 0 0 0 0 0 0 0 1 3 11 32 69 92 93 87 81 78 75 71 66 63 61 59 53 42 29 16 8 4 3 6 14 33 62 84 93 95 94 79 46 18 6 2 1 3 9 25 55 83 92 91 87 77 65 52 44 40 40 44 52 65 77 87 91 92 83 55 25 9 3 1 2 6 18 46 79 94 95 93 84 62 33 14 6 3 4 8 16 29 42 53 59 61 63 66 71 75 78 81 87 93 92 69 32 11 3 1 0 0 0 0 0 0 0 0 0 0 0 0 0 0 
0 0 0 0 0 0 0 0 0 0 0 0 0 0 1 3 11 32 66 88 90 86 82 78 71 58 46 36 31 27 22 16 11 6 3 2 3 8 22 47 75 90 93 93 87 65 34 13 5 2 2 5 13 33 64 88 94 92 84 68 47 30 21 18 18 21 30 47 68 84 92 94 88 64 33 13 5 2 2 5 13 34 65 87 93 93 90 75 47 22 8 3 2 3 6 11 16 22 27 31 36 46 58 71 78 82 86 90 88 66 32 11 3 1 0 0 0 0 0 0 0 0 0 0 0 0 0 0 
0 0 0 0 0 0 0 0 0 0 0 0 0 0 1 4 12 32 65 86 89 86 84 79 66 46 28 18 13 10 7 5 3 2 1 2 4 13 33 65 87 93 92 89 77 52 25 10 4 3 4 8 19 42 73 90 94 91 80 57 32 17 9 7 7 9 17 32 57 80 91 94 90 73 42 19 8 4 3 4 10 25 52 77 89 92 93 87 65 33 13 4 2 1 2 3 5 7 10 13 18 28 46 66 79 84 86 89 86 65 32 12 4 1 0 0 0 0 0 0 0 0 0 0 0 0 0 0 
0 0 0 0 0 0 0 0 0 0 0 0 0 0 1 5 14 35 66 85 88 87 87 81 63 36 18 9 5 3 2 1 1 0 1 2 6 19 48 82 95 95 90 83 68 43 21 9 5 5 7 14 29 54 79 91 93 89 75 47 23 10 5 3 3 5 10 23 47 75 89 93 91 79 54 29 14 7 5 5 9 21 43 68 83 90 95 95 82 48 19 6 2 1 0 1 1 2 3 5 9 18 36 63 81 87 87 88 85 66 35 14 5 1 0 0 0 0 0 0 0 0 0 0 0 0 0 0 
0 0 0 0 0 0 0 0 0 0 0 0 0 1 2 7 18 41 70 85 89 89 90 84 61 31 13 5 2 1 0 0 0 0 0 2 8 25 61 93 99 94 88 79 63 40 21 12 9 11 16 27 45 67 83 90 91 87 70 41 18 7 3 1 1 3 7 18 41 70 87 91 90 83 67 45 27 16 11 9 12 21 40 63 79 88 94 99 93 61 25 8 2 0 0 0 0 0 1 2 5 13 31 61 84 90 89 89 85 70 41 18 7 2 1 0 0 0 0 0 0 0 0 0 0 0 0 0 
0 0 0 0 0 0 0 0 0 0 0 0 0 1 4 11 26 52 77 87 90 92 94 86 59 27 10 3 1 0 0 0 0 0 0 2 9 29 69 99 101 94 87 78 63 44 29 21 21 25 35 48 64 78 86 88 88 85 69 40 17 6 2 1 1 2 6 17 40 69 85 88 88 86 78 64 48 35 25 21 21 29 44 63 78 87 94 101 99 69 29 9 2 0 0 0 0 0 0 1 3 10 27 59 86 94 92 90 87 77 52 26 11 4 1 0 0 0 0 0 0 0 0 0 0 0 0 0 
0 0 0 0 0 0 0 0 0 0 0 0 1 3 9 20 41 66 84 90 92 95 96 85 53 22 7 2 0 0 0 0 0 0 0 2 9 28 68 99 102 95 87 79 68 55 44 40 43 51 62 73 81 85 86 86 86 84 71 44 19 7 2 1 1 2 7 19 44 71 84 86 86 86 85 81 73 62 51 43 40 44 55 68 79 87 95 102 99 68 28 9 2 0 0 0 0 0 0 0 2 7 22 53 85 96 95 92 90 84 66 41 20 9 3 1 0 0 0 0 0 0 0 0 0 0 0 0 
0 0 0 0 0 0 0 0 0 0 0 1 3 8 17 35 60 81 90 92 94 97 95 77 42 16 5 1 0 0 0 0 0 0 0 2 7 23 58 93 101 96 89 82 74 67 63 64 70 78 85 89 89 87 85 84 86 85 77 52 26 10 3 1 1 3 10 26 52 77 85 86 84 85 87 89 89 85 78 70 64 63 67 74 82 89 96 101 93 58 23 7 2 0 0 0 0 0 0 0 1 5 16 42 77 95 97 94 92 90 81 60 35 17 8 3 1 0 0 0 0 0 0 0 0 0 0 0 
0 0 0 0 0 0 0 0 0 0 1 4 8 17 34 57 79 90 93 94 95 94 85 60 29 11 3 1 0 0 0 0 0 0 0 1 5 16 41 76 93 95 90 84 79 76 77 80 86 91 94 93 89 85 83 83 85 88 84 65 36 15 5 2 2 5 15 36 65 84 88 85 83 83 85 89 93 94 91 86 80 77 76 79 84 90 95 93 76 41 16 5 1 0 0 0 0 0 0 0 1 3 11 29 60 85 94 95 94 93 90 79 57 34 17 8 4 1 0 0 0 0 0 0 0 0 0 0 
0 0 0 0 0 0 0 0 0 2 4 9 19 36 58 79 91 94 94 93 91 82 64 37 16 6 2 0 0 0 0 0 0 0 0 1 3 9 24 50 75 87 88 85 82 81 82 86 90 92 91 87 81 78 77 80 85 90 90 79 51 23 9 4 4 9 23 51 79 90 90 85 80 77 78 81 87 91 92 90 86 82 81 82 85 88 87 75 50 24 9 3 1 0 0 0 0 0 0 0 0 2 6 16 37 64 82 91 93 94 94 91 79 58 36 19 9 4 2 0 0 0 0 0 0 0 0 0 
0 0 0 0 0 0 0 0 2 5 11 22 40 62 81 91 94 94 91 86 76 58 37 19 8 3 1 1 0 0 0 0 0 0 0 0 1 4 12 28 51 72 83 85 84 83 84 86 86 82 75 67 61 59 64 73 83 90 94 90 67 33 13 5 5 13 33 67 90 94 90 83 73 64 59 61 67 75 82 86 86 84 83 84 85 83 72 51 28 12 4 1 0 0 0 0 0 0 0 0 1 1 3 8 19 37 58 76 86 91 94 94 91 81 62 40 22 11 5 2 0 0 0 0 0 0 0 0 
0 0 0 0 0 0 0 1 4 12 26 47 69 84 92 93 92 89 82 70 52 33 18 9 4 2 2 2 2 2 2 2 1 1 0 0 1 2 6 14 30 53 73 83 85 85 85 82 74 61 48 39 34 36 46 62 78 89 95 95 79 44 18 8 8 18 44 79 95 95 89 78 62 46 36 34 39 48 61 74 82 85 85 85 83 73 53 30 14 6 2 1 0 0 1 1 2 2 2 2 2 2 2 4 9 18 33 52 70 82 89 92 93 92 84 69 47 26 12 4 1 0 0 0 0 0 0 0 
0 0 0 0 0 0 1 3 10 25 51 76 90 93 92 90 86 79 67 49 30 17 9 5 3 3 4 6 8 9 9 7 5 3 1 1 0 1 3 8 19 39 64 81 86 87 84 75 57 38 25 18 16 20 31 52 74 88 95 97 86 52 22 10 10 22 52 86 97 95 88 74 52 31 20 16 18 25 38 57 75 84 87 86 81 64 39 19 8 3 1 0 1 1 3 5 7 9 9 8 6 4 3 3 5 9 17 30 49 67 79 86 90 92 93 90 76 51 25 10 3 1 0 0 0 0 0 0 
0 0 0 0 0 0 2 6 19 47 80 96 97 92 88 83 78 68 51 33 19 10 6 5 6 8 13 19 25 29 28 23 16 9 4 2 1 1 2 5 14 31 58 79 88 89 84 68 43 23 12 8 8 12 23 46 71 87 95 98 89 56 24 11 11 24 56 89 98 95 87 71 46 23 12 8 8 12 23 43 68 84 89 88 79 58 31 14 5 2 1 1 2 4 9 16 23 28 29 25 19 13 8 6 5 6 10 19 33 51 68 78 83 88 92 97 96 80 47 19 6 2 0 0 0 0 0 0 
0 0 0 0 0 0 3 10 30 69 98 102 95 88 82 77 70 59 43 27 16 11 9 10 14 22 33 48 61 69 68 58 41 24 12 6 3 2 3 5 13 30 56 79 89 91 84 63 34 15 7 4 5 10 22 46 73 88 95 98 88 56 24 11 11 24 56 88 98 95 88 73 46 22 10 5 4 7 15 34 63 84 91 89 79 56 30 13 5 3 2 3 6 12 24 41 58 68 69 61 48 33 22 14 10 9 11 16 27 43 59 70 77 82 88 95 102 98 69 30 10 3 0 0 0 0 0 0 
0 0 0 0 0 1 4 13 40 84 104 102 92 84 78 73 67 58 45 32 23 20 20 24 33 47 65 82 93 99 99 93 76 50 28 14 8 5 5 8 17 34 59 81 90 92 85 60 29 12 5 3 5 11 26 52 77 91 96 97 85 51 21 9 9 21 51 85 97 96 91 77 52 26 11 5 3 5 12 29 60 85 92 90 81 59 34 17 8 5 5 8 14 28 50 76 93 99 99 93 82 65 47 33 24 20 20 23 32 45 58 67 73 78 84 92 102 104 84 40 13 4 1 0 0 0 0 0 
0 0 0 0 0 1 4 14 43 88 105 101 91 83 77 73 70 65 56 48 42 40 43 50 62 75 87 95 99 101 102 101 93 75 51 30 19 14 13 17 26 44 66 83 91 94 86 59 27 10 4 3 6 15 35 63 84 93 97 95 78 43 17 8 8 17 43 78 95 97 93 84 63 35 15 6 3 4 10 27 59 86 94 91 83 66 44 26 17 13 14 19 30 51 75 93 101 102 101 99 95 87 75 62 50 43 40 42 48 56 65 70 73 77 83 91 101 105 88 43 14 4 1 0 0 0 0 0 
0 0 0 0 0 1 4 13 39 82 103 101 93 85 80 78 77 75 73 69 67 67 71 77 84 90 93 95 94 94 95 96 95 87 72 53 39 31 30 34 44 59 75 86 92 95 88 59 26 10 4 5 10 25 50 75 90 95 96 90 66 33 13 5 5 13 33 66 90 96 95 90 75 50 25 10 5 4 10 26 59 88 95 92 86 75 59 44 34 30 31 39 53 72 87 95 96 95 94 94 95 93 90 84 77 71 67 67 69 73 75 77 78 80 85 93 101 103 82 39 13 4 1 0 0 0 0 0 
0 0 0 0 0 1 3 10 30 66 94 99 94 89 85 83 84 85 85 85 85 86 88 90 93 93 92 90 88 87 87 89 90 88 83 73 64 58 56 59 66 75 83 88 94 97 89 58 25 9 5 7 17 39 67 86 93 94 92 80 51 23 9 4 4 9 23 51 80 92 94 93 86 67 39 17 7 5 9 25 58 89 97 94 88 83 75 66 59 56 58 64 73 83 88 90 89 87 87 88 90 92 93 93 90 88 86 85 85 85 85 84 83 85 89 94 99 94 66 30 10 3 1 0 0 0 0 0 
0 0 0 0 0 0 2 7 20 46 74 89 90 88 85 85 87 90 93 94 95 95 96 96 95 93 89 83 79 78 79 82 84 85 85 83 81 79 79 81 83 86 88 92 97 99 88 54 22 8 6 11 28 57 83 93 94 92 86 67 37 16 6 2 2 6 16 37 67 86 92 94 93 83 57 28 11 6 8 22 54 88 99 97 92 88 86 83 81 79 79 81 83 85 85 84 82 79 78 79 83 89 93 95 96 96 95 95 94 93 90 87 85 85 88 90 89 74 46 20 7 2 0 0 0 0 0 0 
0 0 0 0 0 1 2 6 13 28 49 65 72 73 72 75 80 87 93 97 99 100 100 98 94 87 77 68 63 63 68 74 79 82 84 85 86 88 89 90 91 92 94 97 101 99 81 44 18 7 7 16 40 75 93 95 92 89 78 55 27 11 4 1 1 4 11 27 55 78 89 92 95 93 75 40 16 7 7 18 44 81 99 101 97 94 92 91 90 89 88 86 85 84 82 79 74 68 63 63 68 77 87 94 98 100 100 99 97 93 87 80 75 72 73 72 65 49 28 13 6 2 1 0 0 0 0 0 
0 0 0 0 1 2 5 8 14 22 33 41 44 44 45 48 55 66 78 87 93 96 94 89 79 65 52 43 40 44 55 67 76 81 83 85 87 89 91 92 94 95 97 99 99 90 63 31 12 6 8 20 51 86 98 95 91 85 72 46 22 8 3 1 1 3 8 22 46 72 85 91 95 98 86 51 20 8 6 12 31 63 90 99 99 97 95 94 92 91 89 87 85 83 81 76 67 55 44 40 43 52 65 79 89 94 96 93 87 78 66 55 48 45 44 44 41 33 22 14 8 5 2 1 0 0 0 0 
0 0 0 1 3 7 13 20 26 32 34 33 28 24 21 22 26 34 44 55 63 67 65 57 46 34 25 21 21 29 44 63 77 82 84 85 84 84 84 85 86 88 89 88 81 63 38 17 7 4 8 23 56 91 100 96 90 84 70 45 21 8 3 1 1 3 8 21 45 70 84 90 96 100 91 56 23 8 4 7 17 38 63 81 88 89 88 86 85 84 84 84 85 84 82 77 63 44 29 21 21 25 34 46 57 65 67 63 55 44 34 26 22 21 24 28 33 34 32 26 20 13 7 3 1 0 0 0 
0 0 1 3 9 20 35 49 57 60 54 42 27 17 11 9 10 13 17 22 27 29 28 24 18 13 10 9 12 21 40 64 80 86 86 82 75 68 63 60 59 59 58 54 44 31 17 8 4 3 7 21 54 89 100 96 91 86 74 50 26 11 5 3 3 5 11 26 50 74 86 91 96 100 89 54 21 7 3 4 8 17 31 44 54 58 59 59 60 63 68 75 82 86 86 80 64 40 21 12 9 10 13 18 24 28 29 27 22 17 13 10 9 11 17 27 42 54 60 57 49 35 20 9 3 1 0 0 
0 1 2 8 22 46 72 87 92 90 82 63 38 19 9 5 4 5 6 7 9 10 9 8 6 5 4 5 9 21 43 70 86 90 86 74 57 43 34 29 27 26 25 22 18 12 7 4 2 2 6 17 44 79 96 97 93 89 81 62 37 19 9 6 6 9 19 37 62 81 89 93 97 96 79 44 17 6 2 2 4 7 12 18 22 25 26 27 29 34 43 57 74 86 90 86 70 43 21 9 5 4 5 6 8 9 10 9 7 6 5 4 5 9 19 38 63 82 90 92 87 72 46 22 8 2 1 0 
0 1 5 16 41 76 98 103 102 99 94 80 53 27 12 5 3 2 2 2 3 3 3 2 2 2 3 5 11 25 51 78 91 92 82 61 38 23 15 12 10 10 9 8 7 6 4 3 2 2 4 12 30 61 86 95 95 94 89 76 55 33 20 14 14 20 33 55 76 89 94 95 95 86 61 30 12 4 2 2 3 4 6 7 8 9 10 10 12 15 23 38 61 82 92 91 78 51 25 11 5 3 2 2 2 3 3 3 2 2 2 3 5 12 27 53 80 94 99 102 103 98 76 41 16 5 1 0 
1 2 8 25 61 94 104 101 97 95 93 86 65 37 17 8 4 2 1 1 1 1 1 1 1 2 4 7 16 35 62 85 94 91 75 48 25 12 7 5 4 4 5 6 7 8 8 7 6 4 4 8 18 39 65 84 93 96 94 88 74 54 38 29 29 38 54 74 88 94 96 93 84 65 39 18 8 4 4 6 7 8 8 7 6 5 4 4 5 7 12 25 48 75 91 94 85 62 35 16 7 4 2 1 1 1 1 1 1 1 2 4 8 17 37 65 86 93 95 97 101 104 94 61 25 8 2 1 
1 3 12 34 74 99 100 94 88 86 87 85 72 49 27 14 8 4 3 2 2 2 2 2 3 5 8 14 27 48 73 89 93 87 67 39 18 8 4 3 3 5 7 11 16 20 23 21 17 12 8 7 11 21 40 63 82 92 96 94 87 75 61 53 53 61 75 87 94 96 92 82 63 40 21 11 7 8 12 17 21 23 20 16 11 7 5 3 3 4 8 18 39 67 87 93 89 73 48 27 14 8 5 3 2 2 2 2 2 3 4 8 14 27 49 72 85 87 86 88 94 100 99 74 34 12 3 1 
1 4 14 41 81 99 96 87 81 78 79 80 76 61 43 27 18 12 8 6 5 5 6 7 9 13 19 29 45 64 81 89 89 81 61 34 16 8 5 5 6 10 17 28 40 51 56 54 44 30 18 11 9 12 21 38 60 80 91 95 93 86 78 73 73 78 86 93 95 91 80 60 38 21 12 9 11 18 30 44 54 56 51 40 28 17 10 6 5 5 8 16 34 61 81 89 89 81 64 45 29 19 13 9 7 6 5 5 6 8 12 18 27 43 61 76 80 79 78 81 87 96 99 81 41 14 4 1 
2 5 16 44 83 97 92 83 75 72 73 76 77 73 63 50 38 29 22 18 15 15 16 20 25 33 42 54 67 78 85 87 85 78 59 36 20 12 10 11 15 25 39 57 74 86 91 89 79 61 39 21 12 9 12 20 36 58 78 90 93 90 86 82 82 86 90 93 90 78 58 36 20 12 9 12 21 39 61 79 89 91 86 74 57 39 25 15 11 10 12 20 36 59 78 85 87 85 78 67 54 42 33 25 20 16 15 15 18 22 29 38 50 63 73 77 76 73 72 75 83 92 97 83 44 16 5 2 
2 5 17 46 84 97 91 81 73 69 69 73 77 80 79 75 68 59 50 43 38 37 40 46 55 64 73 79 83 86 86 85 83 77 64 46 31 23 22 26 35 50 67 83 93 98 100 100 96 86 65 40 21 12 9 11 19 35 57 77 89 91 90 87 87 90 91 89 77 57 35 19 11 9 12 21 40 65 86 96 100 100 98 93 83 67 50 35 26 22 23 31 46 64 77 83 85 86 86 83 79 73 64 55 46 40 37 38 43 50 59 68 75 79 80 77 73 69 69 73 81 91 97 84 46 17 5 2 
2 5 17 46 85 98 92 82 74 70 70 73 78 83 87 88 87 84 79 73 69 68 71 76 83 88 90 91 90 88 86 84 83 80 73 62 52 46 46 52 63 75 86 93 95 95 96 96 97 95 84 63 38 20 11 8 11 19 36 59 81 91 94 93 93 94 91 81 59 36 19 11 8 11 20 38 63 84 95 97 96 96 95 95 93 86 75 63 52 46 46 52 62 73 80 83 84 86 88 90 91 90 88 83 76 71 68 69 73 79 84 87 88 87 83 78 73 70 70 74 82 92 98 85 46 17 5 2 
1 5 15 43 84 100 96 87 80 75 75 77 81 85 89 91 93 93 91 88 85 85 86 89 92 94 94 93 91 88 86 86 85 85 83 78 74 71 73 77 84 90 93 94 92 91 90 91 93 95 93 82 60 36 19 11 8 11 21 40 66 88 98 100 100 98 88 66 40 21 11 8 11 19 36 60 82 93 95 93 91 90 91 92 94 93 90 84 77 73 71 74 78 83 85 85 86 86 88 91 93 94 94 92 89 86 85 85 88 91 93 93 91 89 85 81 77 75 75 80 87 96 100 84 43 15 5 1 
1 4 13 38 79 102 101 94 88 84 83 83 84 86 88 89 91 91 91 89 88 87 88 90 91 92 91 89 87 85 84 85 88 90 90 89 88 87 88 91 93 95 94 92 89 85 84 86 89 94 96 92 80 58 35 19 11 9 13 25 47 75 95 103 103 95 75 47 25 13 9 11 19 35 58 80 92 96 94 89 86 84 85 89 92 94 95 93 91 88 87 88 89 90 90 88 85 84 85 87 89 91 92 91 90 88 87 88 89 91 91 91 89 88 86 84 83 83 84 88 94 101 102 79 38 13 4 1 
1 3 9 29 67 99 106 103 98 94 91 87 84 81 79 80 82 84 86 86 85 85 86 87 87 84 80 75 70 69 71 77 84 90 94 95 95 95 95 96 97 96 92 86 78 72 70 74 81 89 94 96 91 78 57 36 21 13 11 15 27 49 72 85 85 72 49 27 15 11 13 21 36 57 78 91 96 94 89 81 74 70 72 78 86 92 96 97 96 95 95 95 95 94 90 84 77 71 69 70 75 80 84 87 87 86 85 85 86 86 84 82 80 79 81 84 87 91 94 98 103 106 99 67 29 9 3 1 
0 2 6 18 46 82 102 106 103 98 91 81 70 61 56 57 61 69 77 82 84 84 84 83 77 68 57 47 41 40 44 52 65 79 90 95 97 98 98 97 95 90 80 67 55 46 45 50 62 76 88 94 95 90 77 59 40 25 15 11 14 23 35 44 44 35 23 14 11 15 25 40 59 77 90 95 94 88 76 62 50 45 46 55 67 80 90 95 97 98 98 97 95 90 79 65 52 44 40 41 47 57 68 77 83 84 84 84 82 77 69 61 57 56 61 70 81 91 98 103 106 102 82 46 18 6 2 0 
0 1 3 9 24 50 75 88 89 83 70 55 42 33 29 29 35 47 63 77 83 85 84 78 65 47 32 23 18 17 19 26 36 51 67 79 86 89 88 85 78 66 51 37 27 22 21 26 37 55 74 87 93 93 89 81 66 47 27 14 9 10 13 16 16 13 10 9 14 27 47 66 81 89 93 93 87 74 55 37 26 21 22 27 37 51 66 78 85 88 89 86 79 67 51 36 26 19 17 18 23 32 47 65 78 84 85 83 77 63 47 35 29 29 33 42 55 70 83 89 88 75 50 24 9 3 1 0 
0 0 1 4 10 21 34 44 47 43 35 25 18 13 12 13 18 30 50 71 84 88 86 74 52 30 17 10 7 6 7 10 15 23 33 44 52 56 56 51 43 33 23 16 11 8 8 11 19 33 54 75 86 90 91 91 88 75 49 23 10 5 5 5 5 5 5 10 23 49 75 88 91 91 90 86 75 54 33 19 11 8 8 11 16 23 33 43 51 56 56 52 44 33 23 15 10 7 6 7 10 17 30 52 74 86 88 84 71 50 30 18 13 12 13 18 25 35 43 47 44 34 21 10 4 1 0 0 
0 0 0 1 3 7 12 16 18 16 13 9 6 5 4 6 10 20 41 68 86 91 87 72 44 21 9 5 3 2 2 3 5 9 13 18 22 24 24 21 17 13 9 6 4 3 3 5 9 20 38 61 78 86 89 94 98 95 72 35 13 5 2 2 2 2 5 13 35 72 95 98 94 89 86 78 61 38 20 9 5 3 3 4 6 9 13 17 21 24 24 22 18 13 9 5 3 2 2 3 5 9 21 44 72 87 91 86 68 41 20 10 6 4 5 6 9 13 16 18 16 12 7 3 1 0 0 0 
0 0 0 0 1 3 5 6 7 6 5 4 3 2 2 3 7 16 36 66 87 93 89 70 40 18 7 3 1 1 1 1 2 4 5 8 10 11 11 9 8 5 4 2 1 1 1 3 6 14 29 53 73 82 87 93 100 103 85 44 16 5 2 1 1 2 5 16 44 85 103 100 93 87 82 73 53 29 14 6 3 1 1 1 2 4 5 8 9 11 11 10 8 5 4 2 1 1 1 1 3 7 18 40 70 89 93 87 66 36 16 7 3 2 2 3 4 5 6 7 6 5 3 1 0 0 0 0 
0 0 0 0 1 3 5 6 7 6 5 4 3 2 2 3 7 16 36 66 87 93 89 70 40 18 7 3 1 1 1 1 2 4 5 8 10 11 11 9 8 5 4 2 1 1 1 3 6 14 29 53 73 82 87 93 100 103 85 44 16 5 2 1 1 2 5 16 44 85 103 100 93 87 82 73 53 29 14 6 3 1 1 1 2 4 5 8 9 11 11 10 8 5 4 2 1 1 1 1 3 7 18 40 70 89 93 87 66 36 16 7 3 2 2 3 4 5 6 7 6 5 3 1 0 0 0 0 
0 0 0 1 3 7 12 16 18 16 13 9 6 5 4 6 10 20 41 68 86 91 87 72 44 21 9 5 3 2 2 3 5 9 13 18 22 24 24 21 17 13 9 6 4 3 3 5 9 20 38 61 78 86 89 94 98 95 72 35 13 5 2 2 2 2 5 13 35 72 95 98 94 89 86 78 61 38 20 9 5 3 3 4 6 9 13 17 21 24 24 22 18 13 9 5 3 2 2 3 5 9 21 44 72 87 91 86 68 41 20 10 6 4 5 6 9 13 16 18 16 12 7 3 1 0 0 0 
0 0 1 4 10 21 34 44 47 43 35 25 18 13 12 13 18 30 50 71 84 88 86 74 52 30 17 10 7 6 7 10 15 23 33 44 52 56 56 51 43 33 23 16 11 8 8 11 19 33 54 75 86 90 91 91 88 75 49 23 10 5 5 5 5 5 5 10 23 49 75 88 91 91 90 86 75 54 33 19 11 8 8 11 16 23 33 43 51 56 56 52 44 33 23 15 10 7 6 7 10 17 30 52 74 86 88 84 71 50 30 18 13 12 13 18 25 35 43 47 44 34 21 10 4 1 0 0 
0 1 3 9 24 50 75 88 89 83 70 55 42 33 29 29 35 47 63 77 83 85 84 78 65 47 32 23 18 17 19 26 36 51 67 79 86 89 88 85 78 66 51 37 27 22 21 26 37 55 74 87 93 93 89 81 66 47 27 14 9 10 13 16 16 13 10 9 14 27 47 66 81 89 93 93 87 74 55 37 26 21 22 27 37 51 66 78 85 88 89 86 79 67 51 36 26 19 17 18 23 32 47 65 78 84 85 83 77 63 47 35 29 29 33 42 55 70 83 89 88 75 50 24 9 3 1 0 
0 2 6 18 46 82 102 106 103 98 91 81 70 61 56 57 61 69 77 82 84 84 84 83 77 68 57 47 41 40 44 52 65 79 90 95 97 98 98 97 95 90 80 67 55 46 45 50 62 76 88 94 95 90 77 59 40 25 15 11 14 23 35 44 44 35 23 14 11 15 25 40 59 77 90 95 94 88 76 62 50 45 46 55 67 80 90 95 97 98 98 97 95 90 79 65 52 44 40 41 47 57 68 77 83 84 84 84 82 77 69 61 57 56 61 70 81 91 98 103 106 102 82 46 18 6 2 0 
1 3 9 29 67 99 106 103 98 94 91 87 84 81 79 80 82 84 86 86 85 85 86 87 87 84 80 75 70 69 71 77 84 90 94 95 95 95 95 96 97 96 92 86 78 72 70 74 81 89 94 96 91 78 57 36 21 13 11 15 27 49 72 85 85 72 49 27 15 11 13 21 36 57 78 91 96 94 89 81 74 70 72 78 86 92 96 97 96 95 95 95 95 94 90 84 77 71 69 70 75 80 84 87 87 86 85 85 86 86 84 82 80 79 81 84 87 91 94 98 103 106 99 67 29 9 3 1 
1 4 13 38 79 102 101 94 88 84 83 83 84 86 88 89 91 91 91 89 88 87 88 90 91 92 91 89 87 85 84 85 88 90 90 89 88 87 88 91 93 95 94 92 89 85 84 86 89 94 96 92 80 58 35 19 11 9 13 25 47 75 95 103 103 95 75 47 25 13 9 11 19 35 58 80 92 96 94 89 86 84 85 89 92 94 95 93 91 88 87 88 89 90 90 88 85 84 85 87 89 91 92 91 90 88 87 88 89 91 91 91 89 88 86 84 83 83 84 88 94 101 102 79 38 13 4 1 
1 5 15 43 84 100 96 87 80 75 75 77 81 85 89 91 93 93 91 88 85 85 86 89 92 94 94 93 91 88 86 86 85 85 83 78 74 71 73 77 84 90 93 94 92 91 90 91 93 95 93 82 60 36 19 11 8 11 21 40 66 88 98 100 100 98 88 66 40 21 11 8 11 19 36 60 82 93 95 93 91 90 91 92 94 93 90 84 77 73 71 74 78 83 85 85 86 86 88 91 93 94 94 92 89 86 85 85 88 91 93 93 91 89 85 81 77 75 75 80 87 96 100 84 43 15 5 1 
2 5 17 46 85 98 92 82 74 70 70 73 78 83 87 88 87 84 79 73 69 68 71 76 83 88 90 91 90 88 86 84 83 80 73 62 52 46 46 52 63 75 86 93 95 95 96 96 97 95 84 63 38 20 11 8 11 19 36 59 81 91 94 93 93 94 91 81 59 36 19 11 8 11 20 38 63 84 95 97 96 96 95 95 93 86 75 63 52 46 46 52 62 73 80 83 84 86 88 90 91 90 88 83 76 71 68 69 73 79 84 87 88 87 83 78 73 70 70 74 82 92 98 85 46 17 5 2 
2 5 17 46 84 97 91 81 73 69 69 73 77 80 79 75 68 59 50 43 38 37 40 46 55 64 73 79 83 86 86 85 83 77 64 46 31 23 22 26 35 50 67 83 93 98 100 100 96 86 65 40 21 12 9 11 19 35 57 77 89 91 90 87 87 90 91 89 77 57 35 19 11 9 12 21 40 65 86 96 100 100 98 93 83 67 50 35 26 22 23 31 46 64 77 83 85 86 86 83 79 73 64 55 46 40 37 38 43 50 59 68 75 79 80 77 73 69 69 73 81 91 97 84 46 17 5 2 
2 5 16 44 83 97 92 83 75 72 73 76 77 73 63 50 38 29 22 18 15 15 16 20 25 33 42 54 67 78 85 87 85 78 59 36 20 12 10 11 15 25 39 57 74 86 91 89 79 61 39 21 12 9 12 20 36 58 78 90 93 90 86 82 82 86 90 93 90 78 58 36 20 12 9 12 21 39 61 79 89 91 86 74 57 39 25 15 11 10 12 20 36 59 78 85 87 85 78 67 54 42 33 25 20 16 15 15 18 22 29 38 50 63 73 77 76 73 72 75 83 92 97 83 44 16 5 2 
1 4 14 41 81 99 96 87 81 78 79 80 76 61 43 27 18 12 8 6 5 5 6 7 9 13 19 29 45 64 81 89 89 81 61 34 16 8 5 5 6 10 17 28 40 51 56 54 44 30 18 11 9 12 21 38 60 80 91 95 93 86 78 73 73 78 86 93 95 91 80 60 38 21 12 9 11 18 30 44 54 56 51 40 28 17 10 6 5 5 8 16 34 61 81 89 89 81 64 45 29 19 13 9 7 6 5 5 6 8 12 18 27 43 61 76 80 79 78 81 87 96 99 81 41 14 4 1 
1 3 12 34 74 99 100 94 88 86 87 85 72 49 27 14 8 4 3 2 2 2 2 2 3 5 8 14 27 48 73 89 93 87 67 39 18 8 4 3 3 5 7 11 16 20 23 21 17 12 8 7 11 21 40 63 82 92 96 94 87 75 61 53 53 61 75 87 94 96 92 82 63 40 21 11 7 8 12 17 21 23 20 16 11 7 5 3 3 4 8 18 39 67 87 93 89 73 48 27 14 8 5 3 2 2 2 2 2 3 4 8 14 27 49 72 85 87 86 88 94 100 99 74 34 12 3 1 
1 2 8 25 61 94 104 101 97 95 93 86 65 37 17 8 4 2 1 1 1 1 1 1 1 2 4 7 16 35 62 85 94 91 75 48 25 12 7 5 4 4 5 6 7 8 8 7 6 4 4 8 18 39 65 84 93 96 94 88 74 54 38 29 29 38 54 74 88 94 96 93 84 65 39 18 8 4 4 6 7 8 8 7 6 5 4 4 5 7 12 25 48 75 91 94 85 62 35 16 7 4 2 1 1 1 1 1 1 1 2 4 8 17 37 65 86 93 95 97 101 104 94 61 25 8 2 1 
0 1 5 16 41 76 98 103 102 99 94 80 53 27 12 5 3 2 2 2 3 3 3 2 2 2 3 5 11 25 51 78 91 92 82 61 38 23 15 12 10 10 9 8 7 6 4 3 2 2 4 12 30 61 86 95 95 94 89 76 55 33 20 14 14 20 33 55 76 89 94 95 95 86 61 30 12 4 2 2 3 4 6 7 8 9 10 10 12 15 23 38 61 82 92 91 78 51 25 11 5 3 2 2 2 3 3 3 2 2 2 3 5 12 27 53 80 94 99 102 103 98 76 41 16 5 1 0 
0 1 2 8 22 46 72 87 92 90 82 63 38 19 9 5 4 5 6 7 9 10 9 8 6 5 4 5 9 21 43 70 86 90 86 74 57 43 34 29 27 26 25 22 18 12 7 4 2 2 6 17 44 79 96 97 93 89 81 62 37 19 9 6 6 9 19 37 62 81 89 93 97 96 79 44 17 6 2 2 4 7 12 18 22 25 26 27 29 34 43 57 74 86 90 86 70 43 21 9 5 4 5 6 8 9 10 9 7 6 5 4 5 9 19 38 63 82 90 92 87 72 46 22 8 2 1 0 
0 0 1 3 9 20 35 49 57 60 54 42 27 17 11 9 10 13 17 22 27 29 28 24 18 13 10 9 12 21 40 64 80 86 86 82 75 68 63 60 59 59 58 54 44 31 17 8 4 3 7 21 54 89 100 96 91 86 74 50 26 11 5 3 3 5 11 26 50 74 86 91 96 100 89 54 21 7 3 4 8 17 31 44 54 58 59 59 60 63 68 75 82 86 86 80 64 40 21 12 9 10 13 18 24 28 29 27 22 17 13 10 9 11 17 27 42 54 60 57 49 35 20 9 3 1 0 0 
0 0 0 1 3 7 13 20 26 32 34 33 28 24 21 22 26 34 44 55 63 67 65 57 46 34 25 21 21 29 44 63 77 82 84 85 84 84 84 85 86 88 89 88 81 63 38 17 7 4 8 23 56 91 100 96 90 84 70 45 21 8 3 1 1 3 8 21 45 70 84 90 96 100 91 56 23 8 4 7 17 38 63 81 88 89 88 86 85 84 84 84 85 84 82 77 63 44 29 21 21 25 34 46 57 65 67 63 55 44 34 26 22 21 24 28 33 34 32 26 20 13 7 3 1 0 0 0 
0 0 0 0 1 2 5 8 14 22 33 41 44 44 45 48 55 66 78 87 93 96 94 89 79 65 52 43 40 44 55 67 76 81 83 85 87 89 91 92 94 95 97 99 99 90 63 31 12 6 8 20 51 86 98 95 91 85 72 46 22 8 3 1 1 3 8 22 46 72 85 91 95 98 86 51 20 8 6 12 31 63 90 99 99 97 95 94 92 91 89 87 85 83 81 76 67 55 44 40 43 52 65 79 89 94 96 93 87 78 66 55 48 45 44 44 41 33 22 14 8 5 2 1 0 0 0 0 
0 0 0 0 0 1 2 6 13 28 49 65 72 73 72 75 80 87 93 97 99 100 100 98 94 87 77 68 63 63 68 74 79 82 84 85 86 88 89 90 91 92 94 97 101 99 81 44 18 7 7 16 40 75 93 95 92 89 78 55 27 11 4 1 1 4 11 27 55 78 89 92 95 93 75 40 16 7 7 18 44 81 99 101 97 94 92 91 90 89 88 86 85 84 82 79 74 68 63 63 68 77 87 94 98 100 100 99 97 93 87 80 75 72 73 72 65 49 28 13 6 2 1 0 0 0 0 0 
0 0 0 0 0 0 2 7 20 46 74 89 90 88 85 85 87 90 93 94 95 95 96 96 95 93 89 83 79 78 79 82 84 85 85 83 81 79 79 81 83 86 88 92 97 99 88 54 22 8 6 11 28 57 83 93 94 92 86 67 37 16 6 2 2 6 16 37 67 86 92 94 93 83 57 28 11 6 8 22 54 88 99 97 92 88 86 83 81 79 79 81 83 85 85 84 82 79 78 79 83 89 93 95 96 96 95 95 94 93 90 87 85 85 88 90 89 74 46 20 7 2 0 0 0 0 0 0 
0 0 0 0 0 1 3 10 30 66 94 99 94 89 85 83 84 85 85 85 85 86 88 90 93 93 92 90 88 87 87 89 90 88 83 73 64 58 56 59 66 75 83 88 94 97 89 58 25 9 5 7 17 39 67 86 93 94 92 80 51 23 9 4 4 9 23 51 80 92 94 93 86 67 39 17 7 5 9 25 58 89 97 94 88 83 75 66 59 56 58 64 73 83 88 90 89 87 87 88 90 92 93 93 90 88 86 85 85 85 85 84 83 85 89 94 99 94 66 30 10 3 1 0 0 0 0 0 
0 0 0 0 0 1 4 13 39 82 103 101 93 85 80 78 77 75 73 69 67 67 71 77 84 90 93 95 94 94 95 96 95 87 72 53 39 31 30 34 44 59 75 86 92 95 88 59 26 10 4 5 10 25 50 75 90 95 96 90 66 33 13 5 5 13 33 66 90 96 95 90 75 50 25 10 5 4 10 26 59 88 95 92 86 75 59 44 34 30 31 39 53 72 87 95 96 95 94 94 95 93 90 84 77 71 67 67 69 73 75 77 78 80 85 93 101 103 82 39 13 4 1 0 0 0 0 0 
0 0 0 0 0 1 4 14 43 88 105 101 91 83 77 73 70 65 56 48 42 40 43 50 62 75 87 95 99 101 102 101 93 75 51 30 19 14 13 17 26 44 66 83 91 94 86 59 27 10 4 3 6 15 35 63 84 93 97 95 78 43 17 8 8 17 43 78 95 97 93 84 63 35 15 6 3 4 10 27 59 86 94 91 83 66 44 26 17 13 14 19 30 51 75 93 101 102 101 99 95 87 75 62 50 43 40 42 48 56 65 70 73 77 83 91 101 105 88 43 14 4 1 0 0 0 0 0 
0 0 0 0 0 1 4 13 40 84 104 102 92 84 78 73 67 58 45 32 23 20 20 24 33 47 65 82 93 99 99 93 76 50 28 14 8 5 5 8 17 34 59 81 90 92 85 60 29 12 5 3 5 11 26 52 77 91 96 97 85 51 21 9 9 21 51 85 97 96 91 77 52 26 11 5 3 5 12 29 60 85 92 90 81 59 34 17 8 5 5 8 14 28 50 76 93 99 99 93 82 65 47 33 24 20 20 23 32 45 58 67 73 78 84 92 102 104 84 40 13 4 1 0 0 0 0 0 
0 0 0 0 0 0 3 10 30 69 98 102 95 88 82 77 70 59 43 27 16 11 9 10 14 22 33 48 61 69 68 58 41 24 12 6 3 2 3 5 13 30 56 79 89 91 84 63 34 15 7 4 5 10 22 46 73 88 95 98 88 56 24 11 11 24 56 88 98 95 88 73 46 22 10 5 4 7 15 34 63 84 91 89 79 56 30 13 5 3 2 3 6 12 24 41 58 68 69 61 48 33 22 14 10 9 11 16 27 43 59 70 77 82 88 95 102 98 69 30 10 3 0 0 0 0 0 0 
0 0 0 0 0 0 2 6 19 47 80 96 97 92 88 83 78 68 51 33 19 10 6 5 6 8 13 19 25 29 28 23 16 9 4 2 1 1 2 5 14 31 58 79 88 89 84 68 43 23 12 8 8 12 23 46 71 87 95 98 89 56 24 11 11 24 56 89 98 95 87 71 46 23 12 8 8 12 23 43 68 84 89 88 79 58 31 14 5 2 1 1 2 4 9 16 23 28 29 25 19 13 8 6 5 6 10 19 33 51 68 78 83 88 92 97 96 80 47 19 6 2 0 0 0 0 0 0 
0 0 0 0 0 0 1 3 10 25 51 76 90 93 92 90 86 79 67 49 30 17 9 5 3 3 4 6 8 9 9 7 5 3 1 1 0 1 3 8 19 39 64 81 86 87 84 75 57 38 25 18 16 20 31 52 74 88 95 97 86 52 22 10 10 22 52 86 97 95 88 74 52 31 20 16 18 25 38 57 75 84 87 86 81 64 39 19 8 3 1 0 1 1 3 5 7 9 9 8 6 4 3 3 5 9 17 30 49 67 79 86 90 92 93 90 76 51 25 10 3 1 0 0 0 0 0 0 
0 0 0 0 0 0 0 1 4 12 26 47 69 84 92 93 92 89 82 70 52 33 18 9 4 2 2 2 2 2 2 2 1 1 0 0 1 2 6 14 30 53 73 83 85 85 85 82 74 61 48 39 34 36 46 62 78 89 95 95 79 44 18 8 8 18 44 79 95 95 89 78 62 46 36 34 39 48 61 74 82 85 85 85 83 73 53 30 14 6 2 1 0 0 1 1 2 2 2 2 2 2 2 4 9 18 33 52 70 82 89 92 93 92 84 69 47 26 12 4 1 0 0 0 0 0 0 0 
0 0 0 0 0 0 0 0 2 5 11 22 40 62 81 91 94 94 91 86 76 58 37 19 8 3 1 1 0 0 0 0 0 0 0 0 1 4 12 28 51 72 83 85 84 83 84 86 86 82 75 67 61 59 64 73 83 90 94 90 67 33 13 5 5 13 33 67 90 94 90 83 73 64 59 61 67 75 82 86 86 84 83 84 85 83 72 51 28 12 4 1 0 0 0 0 0 0 0 0 1 1 3 8 19 37 58 76 86 91 94 94 91 81 62 40 22 11 5 2 0 0 0 0 0 0 0 0 
0 0 0 0 0 0 0 0 0 2 4 9 19 36 58 79 91 94 94 93 91 82 64 37 16 6 2 0 0 0 0 0 0 0 0 1 3 9 24 50 75 87 88 85 82 81 82 86 90 92 91 87 81 78 77 80 85 90 90 79 51 23 9 4 4 9 23 51 79 90 90 85 80 77 78 81 87 91 92 90 86 82 81 82 85 88 87 75 50 24 9 3 1 0 0 0 0 0 0 0 0 2 6 16 37 64 82 91 93 94 94 91 79 58 36 19 9 4 2 0 0 0 0 0 0 0 0 0 
0 0 0 0 0 0 0 0 0 0 1 4 8 17 34 57 79 90 93 94 95 94 85 60 29 11 3 1 0 0 0 0 0 0 0 1 5 16 41 76 93 95 90 84 79 76 77 80 86 91 94 93 89 85 83 83 85 88 84 65 36 15 5 2 2 5 15 36 65 84 88 85 83 83 85 89 93 94 91 86 80 77 76 79 84 90 95 93 76 41 16 5 1 0 0 0 0 0 0 0 1 3 11 29 60 85 94 95 94 93 90 79 57 34 17 8 4 1 0 0 0 0 0 0 0 0 0 0 
0 0 0 0 0 0 0 0 0 0 0 1 3 8 17 35 60 81 90 92 94 97 95 77 42 16 5 1 0 0 0 0 0 0 0 2 7 23 58 93 101 96 89 82 74 67 63 64 70 78 85 89 89 87 85 84 86 85 77 52 26 10 3 1 1 3 10 26 52 77 85 86 84 85 87 89 89 85 78 70 64 63 67 74 82 89 96 101 93 58 23 7 2 0 0 0 0 0 0 0 1 5 16 42 77 95 97 94 92 90 81 60 35 17 8 3 1 0 0 0 0 0 0 0 0 0 0 0 
0 0 0 0 0 0 0 0 0 0 0 0 1 3 9 20 41 66 84 90 92 95 96 85 53 22 7 2 0 0 0 0 0 0 0 2 9 28 68 99 102 95 87 79 68 55 44 40 43 51 62 73 81 85 86 86 86 84 71 44 19 7 2 1 1 2 7 19 44 71 84 86 86 86 85 81 73 62 51 43 40 44 55 68 79 87 95 102 99 68 28 9 2 0 0 0 0 0 0 0 2 7 22 53 85 96 95 92 90 84 66 41 20 9 3 1 0 0 0 0 0 0 0 0 0 0 0 0 
0 0 0 0 0 0 0 0 0 0 0 0 0 1 4 11 26 52 77 87 90 92 94 86 59 27 10 3 1 0 0 0 0 0 0 2 9 29 69 99 101 94 87 78 63 44 29 21 21 25 35 48 64 78 86 88 88 85 69 40 17 6 2 1 1 2 6 17 40 69 85 88 88 86 78 64 48 35 25 21 21 29 44 63 78 87 94 101 99 69 29 9 2 0 0 0 0 0 0 1 3 10 27 59 86 94 92 90 87 77 52 26 11 4 1 0 0 0 0 0 0 0 0 0 0 0 0 0 
0 0 0 0 0 0 0 0 0 0 0 0 0 1 2 7 18 41 70 85 89 89 90 84 61 31 13 5 2 1 0 0 0 0 0 2 8 25 61 93 99 94 88 79 63 40 21 12 9 11 16 27 45 67 83 90 91 87 70 41 18 7 3 1 1 3 7 18 41 70 87 91 90 83 67 45 27 16 11 9 12 21 40 63 79 88 94 99 93 61 25 8 2 0 0 0 0 0 1 2 5 13 31 61 84 90 89 89 85 70 41 18 7 2 1 0 0 0 0 0 0 0 0 0 0 0 0 0 
0 0 0 0 0 0 0 0 0 0 0 0 0 0 1 5 14 35 66 85 88 87 87 81 63 36 18 9 5 3 2 1 1 0 1 2 6 19 48 82 95 95 90 83 68 43 21 9 5 5 7 14 29 54 79 91 93 89 75 47 23 10 5 3 3 5 10 23 47 75 89 93 91 79 54 29 14 7 5 5 9 21 43 68 83 90 95 95 82 48 19 6 2 1 0 1 1 2 3 5 9 18 36 63 81 87 87 88 85 66 35 14 5 1 0 0 0 0 0 0 0 0 0 0 0 0 0 0 
0 0 0 0 0 0 0 0 0 0 0 0 0 0 1 4 12 32 65 86 89 86 84 79 66 46 28 18 13 10 7 5 3 2 1 2 4 13 33 65 87 93 92 89 77 52 25 10 4 3 4 8 19 42 73 90 94 91 80 57 32 17 9 7 7 9 17 32 57 80 91 94 90 73 42 19 8 4 3 4 10 25 52 77 89 92 93 87 65 33 13 4 2 1 2 3 5 7 10 13 18 28 46 66 79 84 86 89 86 65 32 12 4 1 0 0 0 0 0 0 0 0 0 0 0 0 0 0 
0 0 0 0 0 0 0 0 0 0 0 0 0 0 1 3 11 32 66 88 90 86 82 78 71 58 46 36 31 27 22 16 11 6 3 2 3 8 22 47 75 90 93 93 87 65 34 13 5 2 2 5 13 33 64 88 94 92 84 68 47 30 21 18 18 21 30 47 68 84 92 94 88 64 33 13 5 2 2 5 13 34 65 87 93 93 90 75 47 22 8 3 2 3 6 11 16 22 27 31 36 46 58 71 78 82 86 90 88 66 32 11 3 1 0 0 0 0 0 0 0 0 0 0 0 0 0 0 
0 0 0 0 0 0 0 0 0 0 0 0 0 0 1 3 11 32 69 92 93 87 81 78 75 71 66 63 61 59 53 42 29 16 8 4 3 6 14 33 62 84 93 95 94 79 46 18 6 2 1 3 9 25 55 83 92 91 87 77 65 52 44 40 40 44 52 65 77 87 91 92 83 55 25 9 3 1 2 6 18 46 79 94 95 93 84 62 33 14 6 3 4 8 16 29 42 53 59 61 63 66 71 75 78 81 87 93 92 69 32 11 3 1 0 0 0 0 0 0 0 0 0 0 0 0 0 0 
0 0 0 0 0 0 0 0 0 0 0 0 0 0 1 3 11 32 71 96 96 89 83 79 78 78 79 81 84 86 85 77 60 37 19 9 5 5 10 24 50 77 90 96 98 89 57 24 8 2 1 2 7 20 46 76 89 90 87 83 78 74 72 70 70 72 74 78 83 87 90 89 76 46 20 7 2 1 2 8 24 57 89 98 96 90 77 50 24 10 5 5 9 19 37 60 77 85 86 84 81 79 78 78 79 83 89 96 96 71 32 11 3 1 0 0 0 0 0 0 0 0 0 0 0 0 0 0 
0 0 0 0 0 0 0 0 0 0 0 0 0 0 0 3 9 29 68 98 101 94 87 83 81 82 84 87 90 94 96 95 85 64 37 18 9 6 9 20 43 71 88 96 100 94 65 28 9 3 1 2 6 16 40 71 86 88 86 84 84 86 87 89 89 87 86 84 84 86 88 86 71 40 16 6 2 1 3 9 28 65 94 100 96 88 71 43 20 9 6 9 18 37 64 85 95 96 94 90 87 84 82 81 83 87 94 101 98 68 29 9 3 0 0 0 0 0 0 0 0 0 0 0 0 0 0 0 
0 0 0 0 0 0 0 0 0 0 0 0 0 0 0 2 7 23 58 95 105 101 94 89 87 86 86 87 89 92 95 97 94 82 58 33 17 10 11 20 40 67 86 95 100 96 67 29 10 3 1 2 5 15 37 68 85 87 85 84 85 88 91 93 93 91 88 85 84 85 87 85 68 37 15 5 2 1 3 10 29 67 96 100 95 86 67 40 20 11 10 17 33 58 82 94 97 95 92 89 87 86 86 87 89 94 101 105 95 58 23 7 2 0 0 0 0 0 0 0 0 0 0 0 0 0 0 0 
0 0 0 0 0 0 0 0 0 0 0 0 0 0 0 1 5 15 42 80 102 105 101 96 93 90 89 88 89 90 92 94 95 91 76 52 30 19 16 23 42 67 85 95 99 93 63 27 9 3 1 2 5 15 38 69 85 88 85 84 83 84 86 87 87 86 84 83 84 85 88 85 69 38 15 5 2 1 3 9 27 63 93 99 95 85 67 42 23 16 19 30 52 76 91 95 94 92 90 89 88 89 90 93 96 101 105 102 80 42 15 5 1 0 0 0 0 0 0 0 0 0 0 0 0 0 0 0 
0 0 0 0 0 0 0 0 0 0 0 0 0 0 0 0 2 8 23 51 80 95 98 96 92 88 86 85 85 87 90 92 94 93 86 70 49 33 27 32 48 69 85 94 97 87 55 22 7 2 1 2 6 18 43 73 88 89 86 82 77 71 68 66 66 68 71 77 82 86 89 88 73 43 18 6 2 1 2 7 22 55 87 97 94 85 69 48 32 27 33 49 70 86 93 94 92 90 87 85 85 86 88 92 96 98 95 80 51 23 8 2 0 0 0 0 0 0 0 0 0 0 0 0 0 0 0 0 
0 0 0 0 0 0 0 0 0 0 0 0 0 0 0 0 1 4 10 23 42 58 68 71 69 66 65 66 70 77 84 90 93 94 91 82 67 51 43 45 56 73 85 93 93 78 44 17 6 2 1 3 8 22 50 79 91 91 86 77 63 50 41 36 36 41 50 63 77 86 91 91 79 50 22 8 3 1 2 6 17 44 78 93 93 85 73 56 45 43 51 67 82 91 94 93 90 84 77 70 66 65 66 69 71 68 58 42 23 10 4 1 0 0 0 0 0 0 0 0 0 0 0 0 0 0 0 0 
0 0 0 0 0 0 0 0 0 0 0 0 0 0 0 0 0 1 4 8 15 23 29 32 32 32 32 35 41 52 66 81 90 94 94 89 79 68 59 58 65 75 85 90 87 66 34 13 5 2 2 4 12 29 59 84 93 91 84 69 47 30 20 16 16 20 30 47 69 84 91 93 84 59 29 12 4 2 2 5 13 34 66 87 90 85 75 65 58 59 68 79 89 94 94 90 81 66 52 41 35 32 32 32 32 29 23 15 8 4 1 0 0 0 0 0 0 0 0 0 0 0 0 0 0 0 0 0 
0 0 0 0 0 0 0 0 0 0 0 0 0 0 0 0 0 0 1 2 5 7 9 11 11 11 12 14 18 26 41 60 79 91 94 92 86 78 70 67 70 77 84 87 80 55 26 10 4 3 4 8 18 38 68 87 93 91 82 61 35 18 10 7 7 10 18 35 61 82 91 93 87 68 38 18 8 4 3 4 10 26 55 80 87 84 77 70 67 70 78 86 92 94 91 79 60 41 26 18 14 12 11 11 11 9 7 5 2 1 0 0 0 0 0 0 0 0 0 0 0 0 0 0 0 0 0 0 
0 0 0 0 0 0 0 0 0 0 0 0 0 0 0 0 0 0 0 0 1 2 3 3 3 3 4 5 7 11 20 35 57 79 91 93 90 83 76 73 73 78 83 85 75 48 22 9 5 5 8 14 27 50 75 88 91 89 80 57 29 13 6 3 3 6 13 29 57 80 89 91 88 75 50 27 14 8 5 5 9 22 48 75 85 83 78 73 73 77 83 90 93 91 79 57 35 20 11 7 5 4 3 3 3 3 2 1 0 0 0 0 0 0 0 0 0 0 0 0 0 0 0 0 0 0 0 0 
0 0 0 0 0 0 0 0 0 0 0 0 0 0 0 0 0 0 0 0 0 0 0 1 1 1 1 1 2 4 9 17 34 58 81 92 92 88 82 78 77 80 85 85 72 45 21 11 9 12 17 27 43 63 79 87 89 88 79 56 29 12 4 2 2 4 12 29 56 79 88 89 87 79 63 43 27 17 12 9 11 21 45 72 85 85 80 77 78 82 88 92 92 81 58 34 17 9 4 2 1 1 1 1 1 0 0 0 0 0 0 0 0 0 0 0 0 0 0 0 0 0 0 0 0 0 0 0 
0 0 0 0 0 0 0 0 0 0 0 0 0 0 0 0 0 0 0 0 0 0 0 0 0 0 0 0 1 1 3 8 17 36 62 84 93 92 88 84 83 85 89 88 73 44 24 17 19 27 37 49 61 73 80 83 85 86 81 61 33 13 5 2 2 5 13 33 61 81 86 85 83 80 73 61 49 37 27 19 17 24 44 73 88 89 85 83 84 88 92 93 84 62 36 17 8 3 1 1 0 0 0 0 0 0 0 0 0 0 0 0 0 0 0 0 0 0 0 0 0 0 0 0 0 0 0 0 
0 0 0 0 0 0 0 0 0 0 0 0 0 0 0 0 0 0 0 0 0 0 0 0 0 0 0 0 0 0 1 3 8 19 40 69 90 97 95 92 91 93 94 90 72 44 28 27 38 53 65 72 76 77 77 78 81 84 84 70 42 18 6 3 3 6 18 42 70 84 84 81 78 77 77 76 72 65 53 38 27 28 44 72 90 94 93 91 92 95 97 90 69 40 19 8 3 1 0 0 0 0 0 0 0 0 0 0 0 0 0 0 0 0 0 0 0 0 0 0 0 0 0 0 0 0 0 0 
0 0 0 0 0 0 0 0 0 0 0 0 0 0 0 0 0 0 0 0 0 0 0 0 0 0 0 0 0 0 0 1 4 9 22 47 76 96 102 102 101 101 99 89 65 41 33 42 63 80 86 85 80 76 73 73 77 83 87 81 55 25 9 4 4 9 25 55 81 87 83 77 73 73 76 80 85 86 80 63 42 33 41 65 89 99 101 101 102 102 96 76 47 22 9 4 1 0 0 0 0 0 0 0 0 0 0 0 0 0 0 0 0 0 0 0 0 0 0 0 0 0 0 0 0 0 0 0 
0 0 0 0 0 0 0 0 0 0 0 0 0 0 0 0 0 0 0 0 0 0 0 0 0 0 0 0 0 0 0 0 1 4 11 26 51 80 98 104 105 103 94 74 49 33 34 54 82 94 93 87 79 73 69 70 75 83 91 91 70 35 13 5 5 13 35 70 91 91 83 75 70 69 73 79 87 93 94 82 54 34 33 49 74 94 103 105 104 98 80 51 26 11 4 1 0 0 0 0 0 0 0 0 0 0 0 0 0 0 0 0 0 0 0 0 0 0 0 0 0 0 0 0 0 0 0 0 
0 0 0 0 0 0 0 0 0 0 0 0 0 0 0 0 0 0 0 0 0 0 0 0 0 0 0 0 0 0 0 0 0 2 5 12 25 47 69 84 88 82 66 46 28 22 32 60 90 99 95 86 78 72 69 70 75 84 94 98 83 43 16 6 6 16 43 83 98 94 84 75 70 69 72 78 86 95 99 90 60 32 22 28 46 66 82 88 84 69 47 25 12 5 2 0 0 0 0 0 0 0 0 0 0 0 0 0 0 0 0 0 0 0 0 0 0 0 0 0 0 0 0 0 0 0 0 0 
0 0 0 0 0 0 0 0 0 0 0 0 0 0 0 0 0 0 0 0 0 0 0 0 0 0 0 0 0 0 0 0 0 0 2 4 10 19 30 40 43 39 30 20 13 14 26 57 92 102 97 88 81 75 73 74 80 88 98 103 89 47 18 7 7 18 47 89 103 98 88 80 74 73 75 81 88 97 102 92 57 26 14 13 20 30 39 43 40 30 19 10 4 2 0 0 0 0 0 0 0 0 0 0 0 0 0 0 0 0 0 0 0 0 0 0 0 0 0 0 0 0 0 0 0 0 0 0 
0 0 0 0 0 0 0 0 0 0 0 0 0 0 0 0 0 0 0 0 0 0 0 0 0 0 0 0 0 0 0 0 0 0 0 1 3 6 10 13 14 13 10 7 6 8 20 49 87 103 101 94 87 83 81 82 87 94 103 106 88 44 16 6 6 16 44 88 106 103 94 87 82 81 83 87 94 101 103 87 49 20 8 6 7 10 13 14 13 10 6 3 1 0 0 0 0 0 0 0 0 0 0 0 0 0 0 0 0 0 0 0 0 0 0 0 0 0 0 0 0 0 0 0 0 0 0 0 
0 0 0 0 0 0 0 0 0 0 0 0 0 0 0 0 0 0 0 0 0 0 0 0 0 0 0 0 0 0 0 0 0 0 0 0 1 2 3 4 4 4 3 2 2 5 13 35 72 98 104 100 96 92 91 92 96 101 106 102 75 34 12 5 5 12 34 75 102 106 101 96 92 91 92 96 100 104 98 72 35 13 5 2 2 3 4 4 4 3 2 1 0 0 0 0 0 0 0 0 0 0 0 0 0 0 0 0 0 0 0 0 0 0 0 0 0 0 0 0 0 0 0 0 0 0 0 0 
0 0 0 0 0 0 0 0 0 0 0 0 0 0 0 0 0 0 0 0 0 0 0 0 0 0 0 0 0 0 0 0 0 0 0 0 0 0 0 1 1 1 1 0 1 2 7 20 46 76 94 99 99 97 97 98 100 102 99 82 50 21 7 3 3 7 21 50 82 99 102 100 98 97 97 99 99 94 76 46 20 7 2 1 0 1 1 1 1 0 0 0 0 0 0 0 0 0 0 0 0 0 0 0 0 0 0 0 0 0 0 0 0 0 0 0 0 0 0 0 0 0 0 0 0 0 0 0 
0 0 0 0 0 0 0 0 0 0 0 0 0 0 0 0 0 0 0 0 0 0 0 0 0 0 0 0 0 0 0 0 0 0 0 0 0 0 0 0 0 0 0 0 0 1 3 9 22 41 61 74 81 83 84 85 84 79 67 46 24 10 3 1 1 3 10 24 46 67 79 84 85 84 83 81 74 61 41 22 9 3 1 0 0 0 0 0 0 0 0 0 0 0 0 0 0 0 0 0 0 0 0 0 0 0 0 0 0 0 0 0 0 0 0 0 0 0 0 0 0 0 0 0 0 0 0 0 
0 0 0 0 0 0 0 0 0 0 0 0 0 0 0 0 0 0 0 0 0 0 0 0 0 0 0 0 0 0 0 0 0 0 0 0 0 0 0 0 0 0 0 0 0 0 1 3 8 16 25 34 41 44 46 46 43 38 29 18 9 4 1 0 0 1 4 9 18 29 38 43 46 46 44 41 34 25 16 8 3 1 0 0 0 0 0 0 0 0 0 0 0 0 0 0 0 0 0 0 0 0 0 0 0 0 0 0 0 0 0 0 0 0 0 0 0 0 0 0 0 0 0 0 0 0 0 0 
0 0 0 0 0 0 0 0 0 0 0 0 0 0 0 0 0 0 0 0 0 0 0 0 0 0 0 0 0 0 0 0 0 0 0 0 0 0 0 0 0 0 0 0 0 0 0 1 2 5 8 12 14 16 17 17 15 13 9 6 3 1 0 0 0 0 1 3 6 9 13 15 17 17 16 14 12 8 5 2 1 0 0 0 0 0 0 0 0 0 0 0 0 0 0 0 0 0 0 0 0 0 0 0 0 0 0 0 0 0 0 0 0 0 0 0 0 0 0 0 0 0 0 0 0 0 0 0 
0 0 0 0 0 0 0 0 0 0 0 0 0 0 0 0 0 0 0 0 0 0 0 0 0 0 0 0 0 0 0 0 0 0 0 0 0 0 0 0 0 0 0 0 0 0 0 0 1 1 2 3 4 5 5 5 5 4 3 2 1 0 0 0 0 0 0 1 2 3 4 5 5 5 5 4 3 2 1 1 0 0 0 0 0 0 0 0 0 0 0 0 0 0 0 0 0 0 0 0 0 0 0 0 0 0 0 0 0 0 0 0 0 0 0 0 0 0 0 0 0 0 0 0 0 0 0 0 
0 0 0 0 0 0 0 0 0 0 0 0 0 0 0 0 0 0 0 0 0 0 0 0 0 0 0 0 0 0 0 0 0 0 0 0 0 0 0 0 0 0 0 0 0 0 0 0 0 0 1 1 1 2 2 2 1 1 1 0 0 0 0 0 0 0 0 0 0 1 1 1 2 2 2 1 1 1 0 0 0 0 0 0 0 0 0 0 0 0 0 0 0 0 0 0 0 0 0 0 0 0 0 0 0 0 0 0 0 0 0 0 0 0 0 0 0 0 0 0 0 0 0 0 0 0 0 0 
